<svg xmlns="http://www.w3.org/2000/svg" viewBox="0 0 134.19 95.06"><defs><style>.b6f41d50-adc9-47c3-ab21-abdbd810d3aa{font-size:38.14px;fill:#444345;font-family:Code-Bold, Code Bold;}.f931282f-557f-4b97-b1ae-92374886b75f{letter-spacing:-0.01em;}.\31 bb04ac5-0bc5-4b63-90ed-f2ec828e020e{letter-spacing:0.01em;}.c0457117-b0cd-41f8-887a-1d11e76a8857{letter-spacing:0.01em;}.\33 407a3df-f1f7-47ec-8631-b04f9e89c2e8{letter-spacing:-0.08em;}.\31 19d27f9-4a29-4bd9-9362-84ea8ee905d9{font-size:23.33px;font-family:Futura-Medium, Futura;}.\31 19d27f9-4a29-4bd9-9362-84ea8ee905d9,.\38 da1c25c-93fe-4e81-bac6-990e54cd7dd2{fill:#077cc1;}.\36 58f4aef-e832-4248-b2dc-a8b29fe4f556{letter-spacing:0.01em;}</style></defs><title>logo</title><g id="acaf823c-e5b9-42fe-8066-e0796c019aa9" data-name="Layer 2"><g id="7f4f6256-7923-4fb2-92ab-76c9ec98a29d" data-name="Layer 1"><text class="b6f41d50-adc9-47c3-ab21-abdbd810d3aa" transform="translate(0 32.42)">P<tspan class="f931282f-557f-4b97-b1ae-92374886b75f" x="20.1" y="0">r</tspan><tspan class="1bb04ac5-0bc5-4b63-90ed-f2ec828e020e" x="39.98" y="0">o</tspan><tspan class="c0457117-b0cd-41f8-887a-1d11e76a8857" x="69.31" y="0">m</tspan><tspan class="3407a3df-f1f7-47ec-8631-b04f9e89c2e8" x="96.66" y="0">p</tspan><tspan x="113.82" y="0">t</tspan></text><text class="119d27f9-4a29-4bd9-9362-84ea8ee905d9" transform="translate(33.52 60.33)">E<tspan class="658f4aef-e832-4248-b2dc-a8b29fe4f556" x="13.19" y="0">q</tspan><tspan x="27.44" y="0" xml:space="preserve">uati    </tspan></text><path class="8da1c25c-93fe-4e81-bac6-990e54cd7dd2" d="M116.87,58.07v2.79a.28.28,0,0,1-.13.24L111,64.39l-.92.53a.18.18,0,0,1-.2,0l-6.7-3.87-2.46-1.41a.35.35,0,0,1-.18-.31q0-5.25,0-10.5c0-.17,0-.26.29-.35a5,5,0,0,0,1.17-.56c1.93-1.29,4-2.39,6-3.54l1.82-1.07a.37.37,0,0,1,.38,0l6.09,3.53c.19.11.44.17.54.34s0,.41,0,.62c0,.71,0,1.43,0,2.14,0,.14,0,.17-.15.09l-4.56-2.63-2-1.17a.24.24,0,0,0-.27,0L107.2,47.8,103.32,50a.27.27,0,0,0-.14.25V57.9a.28.28,0,0,0,.13.24l5.78,3.33.76.44a.29.29,0,0,0,.32,0c.93-.5,1.79-1.12,2.72-1.62,1.27-.67,2.5-1.4,3.75-2.12Z"/><path class="8da1c25c-93fe-4e81-bac6-990e54cd7dd2" d="M114.75,54.24c0,.81,0,1.62,0,2.43a.3.3,0,0,1-.15.26l-4.24,2.45a.24.24,0,0,1-.23,0Q108,58.15,105.91,57a.35.35,0,0,1-.17-.3V51.83a.32.32,0,0,1,.15-.27c1.3-.74,2.6-1.48,3.87-2.24.43-.26.71-.24,1.24.18a18,18,0,0,0,3.6,2,.23.23,0,0,1,.16.24C114.75,52.61,114.75,53.42,114.75,54.24Z"/><text class="119d27f9-4a29-4bd9-9362-84ea8ee905d9" transform="translate(116.99 60.33)">n</text></g></g></svg>